STARTFONT 2.1
FONT -artwiz-drift-bold-r-bold--10-100-75-75-n-70-ISO8859-1
SIZE 10 75 75
FONTBOUNDINGBOX 7 11 -1 -2
STARTPROPERTIES 26
FONTNAME_REGISTRY ""
FOUNDRY "artwiz"
FAMILY_NAME "drift"
WEIGHT_NAME "bold"
SLANT "r"
SETWIDTH_NAME "normal"
ADD_STYLE_NAME ""
PIXEL_SIZE 10
POINT_SIZE 100
RESOLUTION_X 75
RESOLUTION_Y 75
SPACING "M"
AVERAGE_WIDTH 70
CHARSET_REGISTRY "ISO8859"
CHARSET_ENCODING "1"
COPYRIGHT "artwiz, latin1 and bold chars by Sergio Martins"
FACE_NAME "drift"
WEIGHT 10
RESOLUTION 99
X_HEIGHT 6
QUAD_WIDTH 7
DEFAULT_CHAR 63
FONT_ASCENT 9
FONT_DESCENT 2
_ORIGINAL_FONT_NAME "drift"
_GBDFED_INFO "Edited with gbdfed 1.6."
ENDPROPERTIES
CHARS 210
STARTCHAR START OF HEADING
ENCODING 1
SWIDTH 576 0
DWIDTH 6 0
BBX 6 8 -1 0
BITMAP
78
CC
FC
CC
FC
FC
CC
78
ENDCHAR
STARTCHAR START OF TEXT
ENCODING 2
SWIDTH 576 0
DWIDTH 6 0
BBX 6 8 -1 0
BITMAP
78
FC
B4
FC
CC
FC
FC
78
ENDCHAR
STARTCHAR END OF TEXT
ENCODING 3
SWIDTH 576 0
DWIDTH 6 0
BBX 6 5 -1 2
BITMAP
CC
FC
FC
78
30
ENDCHAR
STARTCHAR END OF TRANSMISSION
ENCODING 4
SWIDTH 576 0
DWIDTH 6 0
BBX 6 5 -1 2
BITMAP
30
78
FC
78
30
ENDCHAR
STARTCHAR ENQUIRY
ENCODING 5
SWIDTH 576 0
DWIDTH 6 0
BBX 6 7 -1 1
BITMAP
78
78
FC
FC
FC
30
78
ENDCHAR
STARTCHAR ACKNOWLEDGE
ENCODING 6
SWIDTH 576 0
DWIDTH 6 0
BBX 6 6 -1 1
BITMAP
30
78
FC
FC
B4
78
ENDCHAR
STARTCHAR BELL
ENCODING 7
SWIDTH 576 0
DWIDTH 6 0
BBX 6 2 -1 4
BITMAP
78
CC
ENDCHAR
STARTCHAR BACKSPACE
ENCODING 8
SWIDTH 576 0
DWIDTH 6 0
BBX 6 3 -1 3
BITMAP
38
6C
C0
ENDCHAR
STARTCHAR DEVICE CONTROL ONE
ENCODING 17
SWIDTH 576 0
DWIDTH 6 0
BBX 4 5 1 2
BITMAP
C0
E0
F0
E0
C0
ENDCHAR
STARTCHAR DEVICE CONTROL TWO
ENCODING 18
SWIDTH 576 0
DWIDTH 6 0
BBX 4 5 0 2
BITMAP
30
70
F0
70
30
ENDCHAR
STARTCHAR DEVICE CONTROL THREE
ENCODING 19
SWIDTH 576 0
DWIDTH 6 0
BBX 4 8 1 1
BITMAP
60
E0
60
60
60
60
F0
60
ENDCHAR
STARTCHAR DEVICE CONTROL FOUR
ENCODING 20
SWIDTH 576 0
DWIDTH 6 0
BBX 5 8 0 1
BITMAP
D8
D8
D8
D8
D8
00
D8
D8
ENDCHAR
STARTCHAR NEGATIVE ACKNOWLEDGE
ENCODING 21
SWIDTH 576 0
DWIDTH 6 0
BBX 6 6 -1 2
BITMAP
FC
EC
6C
6C
6C
6C
ENDCHAR
STARTCHAR SYNCHRONOUS IDLE
ENCODING 22
SWIDTH 576 0
DWIDTH 6 0
BBX 5 7 0 1
BITMAP
78
D8
70
D8
70
D8
F0
ENDCHAR
STARTCHAR END OF TRANSMISSION BLOCK
ENCODING 23
SWIDTH 576 0
DWIDTH 6 0
BBX 5 2 0 2
BITMAP
F8
F8
ENDCHAR
STARTCHAR CANCEL
ENCODING 24
SWIDTH 576 0
DWIDTH 6 0
BBX 5 7 0 1
BITMAP
30
78
30
30
78
30
F8
ENDCHAR
STARTCHAR SUBSTITUTE
ENCODING 26
SWIDTH 576 0
DWIDTH 6 0
BBX 4 4 1 2
BITMAP
60
60
F0
60
ENDCHAR
STARTCHAR INFORMATION SEPARATOR FOUR
ENCODING 28
SWIDTH 576 0
DWIDTH 6 0
BBX 5 3 0 3
BITMAP
C0
C0
F8
ENDCHAR
STARTCHAR INFORMATION SEPARATOR THREE
ENCODING 29
SWIDTH 576 0
DWIDTH 6 0
BBX 6 3 -1 3
BITMAP
78
FC
78
ENDCHAR
STARTCHAR INFORMATION SEPARATOR TWO
ENCODING 30
SWIDTH 576 0
DWIDTH 6 0
BBX 6 3 -1 3
BITMAP
30
78
FC
ENDCHAR
STARTCHAR INFORMATION SEPARATOR ONE
ENCODING 31
SWIDTH 576 0
DWIDTH 6 0
BBX 6 3 -1 3
BITMAP
FC
78
30
ENDCHAR
STARTCHAR SPACE
ENCODING 32
SWIDTH 576 0
DWIDTH 6 0
BBX 0 0 0 0
BITMAP
ENDCHAR
STARTCHAR EXCLAMATION MARK
ENCODING 33
SWIDTH 576 0
DWIDTH 6 0
BBX 2 7 1 0
BITMAP
C0
C0
C0
C0
C0
00
C0
ENDCHAR
STARTCHAR QUOTATION MARK
ENCODING 34
SWIDTH 576 0
DWIDTH 6 0
BBX 5 3 0 5
BITMAP
D8
D8
D8
ENDCHAR
STARTCHAR NUMBER SIGN
ENCODING 35
SWIDTH 576 0
DWIDTH 6 0
BBX 7 7 -1 0
BITMAP
6C
6C
EE
6C
EE
6C
6C
ENDCHAR
STARTCHAR DOLLAR SIGN
ENCODING 36
SWIDTH 576 0
DWIDTH 6 0
BBX 5 9 0 -1
BITMAP
30
78
F0
F0
70
78
78
F0
60
ENDCHAR
STARTCHAR PERCENT SIGN
ENCODING 37
SWIDTH 576 0
DWIDTH 6 0
BBX 7 8 -1 -1
BITMAP
0C
EC
F8
18
30
3E
6E
60
ENDCHAR
STARTCHAR AMPERSAND
ENCODING 38
SWIDTH 576 0
DWIDTH 6 0
BBX 6 7 0 0
BITMAP
70
D8
70
DC
D8
D8
7C
ENDCHAR
STARTCHAR APOSTROPHE
ENCODING 39
SWIDTH 576 0
DWIDTH 6 0
BBX 3 3 1 5
BITMAP
60
60
C0
ENDCHAR
STARTCHAR LEFT PARENTHESIS
ENCODING 40
SWIDTH 576 0
DWIDTH 6 0
BBX 4 9 1 -1
BITMAP
70
C0
C0
C0
C0
C0
C0
C0
70
ENDCHAR
STARTCHAR RIGHT PARENTHESIS
ENCODING 41
SWIDTH 576 0
DWIDTH 6 0
BBX 4 9 0 -1
BITMAP
E0
30
30
30
30
30
30
30
E0
ENDCHAR
STARTCHAR ASTERISK
ENCODING 42
SWIDTH 576 0
DWIDTH 6 0
BBX 5 5 0 1
BITMAP
D8
70
F8
70
D8
ENDCHAR
STARTCHAR PLUS SIGN
ENCODING 43
SWIDTH 576 0
DWIDTH 6 0
BBX 6 5 0 1
BITMAP
30
30
FC
30
30
ENDCHAR
STARTCHAR COMMA
ENCODING 44
SWIDTH 576 0
DWIDTH 6 0
BBX 3 4 0 -2
BITMAP
60
60
60
C0
ENDCHAR
STARTCHAR HYPHEN-MINUS
ENCODING 45
SWIDTH 576 0
DWIDTH 6 0
BBX 5 1 0 3
BITMAP
F8
ENDCHAR
STARTCHAR FULL STOP
ENCODING 46
SWIDTH 576 0
DWIDTH 6 0
BBX 2 2 1 0
BITMAP
C0
C0
ENDCHAR
STARTCHAR SOLIDUS
ENCODING 47
SWIDTH 576 0
DWIDTH 6 0
BBX 5 8 0 -1
BITMAP
18
18
30
30
60
60
C0
C0
ENDCHAR
STARTCHAR DIGIT ZERO
ENCODING 48
SWIDTH 576 0
DWIDTH 6 0
BBX 5 7 0 0
BITMAP
70
D8
F8
F8
D8
D8
70
ENDCHAR
STARTCHAR DIGIT ONE
ENCODING 49
SWIDTH 576 0
DWIDTH 6 0
BBX 3 7 1 0
BITMAP
60
E0
60
60
60
60
60
ENDCHAR
STARTCHAR DIGIT TWO
ENCODING 50
SWIDTH 576 0
DWIDTH 6 0
BBX 5 7 0 0
BITMAP
70
D8
18
30
60
C0
F8
ENDCHAR
STARTCHAR DIGIT THREE
ENCODING 51
SWIDTH 576 0
DWIDTH 6 0
BBX 5 7 0 0
BITMAP
70
D8
18
70
18
D8
70
ENDCHAR
STARTCHAR DIGIT FOUR
ENCODING 52
SWIDTH 576 0
DWIDTH 6 0
BBX 5 7 0 0
BITMAP
D8
D8
D8
78
18
18
18
ENDCHAR
STARTCHAR DIGIT FIVE
ENCODING 53
SWIDTH 576 0
DWIDTH 6 0
BBX 5 7 0 0
BITMAP
F8
C0
F0
18
18
D8
70
ENDCHAR
STARTCHAR DIGIT SIX
ENCODING 54
SWIDTH 576 0
DWIDTH 6 0
BBX 5 7 0 0
BITMAP
70
C0
F0
D8
D8
D8
70
ENDCHAR
STARTCHAR DIGIT SEVEN
ENCODING 55
SWIDTH 576 0
DWIDTH 6 0
BBX 5 7 0 0
BITMAP
F8
18
18
30
30
60
60
ENDCHAR
STARTCHAR DIGIT EIGHT
ENCODING 56
SWIDTH 576 0
DWIDTH 6 0
BBX 5 7 0 0
BITMAP
70
D8
D8
70
D8
D8
70
ENDCHAR
STARTCHAR DIGIT NINE
ENCODING 57
SWIDTH 576 0
DWIDTH 6 0
BBX 5 7 0 0
BITMAP
70
D8
D8
78
18
D8
70
ENDCHAR
STARTCHAR COLON
ENCODING 58
SWIDTH 576 0
DWIDTH 6 0
BBX 2 6 1 0
BITMAP
C0
C0
00
00
C0
C0
ENDCHAR
STARTCHAR SEMICOLON
ENCODING 59
SWIDTH 576 0
DWIDTH 6 0
BBX 3 8 0 -2
BITMAP
60
60
00
00
60
60
60
C0
ENDCHAR
STARTCHAR LESS-THAN SIGN
ENCODING 60
SWIDTH 576 0
DWIDTH 6 0
BBX 4 5 1 1
BITMAP
30
60
C0
60
30
ENDCHAR
STARTCHAR EQUALS SIGN
ENCODING 61
SWIDTH 576 0
DWIDTH 6 0
BBX 5 3 0 2
BITMAP
F8
00
F8
ENDCHAR
STARTCHAR GREATER-THAN SIGN
ENCODING 62
SWIDTH 576 0
DWIDTH 6 0
BBX 4 5 0 1
BITMAP
C0
60
30
60
C0
ENDCHAR
STARTCHAR QUESTION MARK
ENCODING 63
SWIDTH 576 0
DWIDTH 6 0
BBX 5 7 0 0
BITMAP
70
D8
18
30
60
00
60
ENDCHAR
STARTCHAR COMMERCIAL AT
ENCODING 64
SWIDTH 576 0
DWIDTH 6 0
BBX 5 7 0 0
BITMAP
70
D8
D8
F8
F8
C0
78
ENDCHAR
STARTCHAR LATIN CAPITAL LETTER A
ENCODING 65
SWIDTH 576 0
DWIDTH 6 0
BBX 5 7 0 0
BITMAP
70
D8
D8
D8
F8
D8
D8
ENDCHAR
STARTCHAR LATIN CAPITAL LETTER B
ENCODING 66
SWIDTH 576 0
DWIDTH 6 0
BBX 5 7 0 0
BITMAP
F0
D8
D8
F0
D8
D8
F0
ENDCHAR
STARTCHAR LATIN CAPITAL LETTER C
ENCODING 67
SWIDTH 576 0
DWIDTH 6 0
BBX 5 7 0 0
BITMAP
70
D8
C0
C0
C0
D8
70
ENDCHAR
STARTCHAR LATIN CAPITAL LETTER D
ENCODING 68
SWIDTH 576 0
DWIDTH 6 0
BBX 5 7 0 0
BITMAP
F0
D8
D8
D8
D8
D8
F0
ENDCHAR
STARTCHAR LATIN CAPITAL LETTER E
ENCODING 69
SWIDTH 576 0
DWIDTH 6 0
BBX 5 7 0 0
BITMAP
F8
C0
C0
F0
C0
C0
F8
ENDCHAR
STARTCHAR LATIN CAPITAL LETTER F
ENCODING 70
SWIDTH 576 0
DWIDTH 6 0
BBX 5 7 0 0
BITMAP
F8
C0
C0
F0
C0
C0
C0
ENDCHAR
STARTCHAR LATIN CAPITAL LETTER G
ENCODING 71
SWIDTH 576 0
DWIDTH 6 0
BBX 5 7 0 0
BITMAP
70
D8
C0
F8
D8
D8
70
ENDCHAR
STARTCHAR LATIN CAPITAL LETTER H
ENCODING 72
SWIDTH 576 0
DWIDTH 6 0
BBX 5 7 0 0
BITMAP
D8
D8
D8
F8
D8
D8
D8
ENDCHAR
STARTCHAR LATIN CAPITAL LETTER I
ENCODING 73
SWIDTH 576 0
DWIDTH 6 0
BBX 4 7 1 0
BITMAP
F0
60
60
60
60
60
F0
ENDCHAR
STARTCHAR LATIN CAPITAL LETTER J
ENCODING 74
SWIDTH 576 0
DWIDTH 6 0
BBX 5 7 0 0
BITMAP
78
18
18
18
18
D8
70
ENDCHAR
STARTCHAR LATIN CAPITAL LETTER K
ENCODING 75
SWIDTH 576 0
DWIDTH 6 0
BBX 6 7 0 0
BITMAP
CC
D8
F0
E0
F0
D8
CC
ENDCHAR
STARTCHAR LATIN CAPITAL LETTER L
ENCODING 76
SWIDTH 576 0
DWIDTH 6 0
BBX 5 7 0 0
BITMAP
C0
C0
C0
C0
C0
C0
F8
ENDCHAR
STARTCHAR LATIN CAPITAL LETTER M
ENCODING 77
SWIDTH 576 0
DWIDTH 6 0
BBX 5 7 0 0
BITMAP
D8
F8
F8
D8
D8
D8
D8
ENDCHAR
STARTCHAR LATIN CAPITAL LETTER N
ENCODING 78
SWIDTH 576 0
DWIDTH 6 0
BBX 5 7 0 0
BITMAP
D8
F8
F8
F8
F8
D8
D8
ENDCHAR
STARTCHAR LATIN CAPITAL LETTER O
ENCODING 79
SWIDTH 576 0
DWIDTH 6 0
BBX 5 7 0 0
BITMAP
70
D8
D8
D8
D8
D8
70
ENDCHAR
STARTCHAR LATIN CAPITAL LETTER P
ENCODING 80
SWIDTH 576 0
DWIDTH 6 0
BBX 5 7 0 0
BITMAP
F0
D8
D8
F0
C0
C0
C0
ENDCHAR
STARTCHAR LATIN CAPITAL LETTER Q
ENCODING 81
SWIDTH 576 0
DWIDTH 6 0
BBX 5 8 0 -1
BITMAP
70
D8
D8
D8
D8
F8
70
18
ENDCHAR
STARTCHAR LATIN CAPITAL LETTER R
ENCODING 82
SWIDTH 576 0
DWIDTH 6 0
BBX 5 7 0 0
BITMAP
F0
D8
D8
F0
D8
D8
D8
ENDCHAR
STARTCHAR LATIN CAPITAL LETTER S
ENCODING 83
SWIDTH 576 0
DWIDTH 6 0
BBX 5 7 0 0
BITMAP
70
D8
C0
70
18
D8
70
ENDCHAR
STARTCHAR LATIN CAPITAL LETTER T
ENCODING 84
SWIDTH 576 0
DWIDTH 6 0
BBX 6 7 0 0
BITMAP
FC
30
30
30
30
30
30
ENDCHAR
STARTCHAR LATIN CAPITAL LETTER U
ENCODING 85
SWIDTH 576 0
DWIDTH 6 0
BBX 5 7 0 0
BITMAP
D8
D8
D8
D8
D8
D8
70
ENDCHAR
STARTCHAR LATIN CAPITAL LETTER V
ENCODING 86
SWIDTH 576 0
DWIDTH 6 0
BBX 5 7 0 0
BITMAP
D8
D8
D8
D8
D8
70
70
ENDCHAR
STARTCHAR LATIN CAPITAL LETTER W
ENCODING 87
SWIDTH 576 0
DWIDTH 6 0
BBX 5 7 0 0
BITMAP
D8
D8
D8
D8
F8
F8
D8
ENDCHAR
STARTCHAR LATIN CAPITAL LETTER X
ENCODING 88
SWIDTH 576 0
DWIDTH 6 0
BBX 5 7 0 0
BITMAP
D8
D8
70
70
70
D8
D8
ENDCHAR
STARTCHAR LATIN CAPITAL LETTER Y
ENCODING 89
SWIDTH 576 0
DWIDTH 6 0
BBX 6 7 0 0
BITMAP
CC
CC
78
30
30
30
30
ENDCHAR
STARTCHAR LATIN CAPITAL LETTER Z
ENCODING 90
SWIDTH 576 0
DWIDTH 6 0
BBX 5 7 0 0
BITMAP
F8
18
30
60
C0
C0
F8
ENDCHAR
STARTCHAR LEFT SQUARE BRACKET
ENCODING 91
SWIDTH 576 0
DWIDTH 6 0
BBX 4 9 1 -1
BITMAP
F0
C0
C0
C0
C0
C0
C0
C0
F0
ENDCHAR
STARTCHAR REVERSE SOLIDUS
ENCODING 92
SWIDTH 576 0
DWIDTH 6 0
BBX 5 8 0 -1
BITMAP
C0
C0
60
60
30
30
18
18
ENDCHAR
STARTCHAR RIGHT SQUARE BRACKET
ENCODING 93
SWIDTH 576 0
DWIDTH 6 0
BBX 4 9 0 -1
BITMAP
F0
30
30
30
30
30
30
30
F0
ENDCHAR
STARTCHAR CIRCUMFLEX ACCENT
ENCODING 94
SWIDTH 576 0
DWIDTH 6 0
BBX 6 3 0 4
BITMAP
30
78
CC
ENDCHAR
STARTCHAR LOW LINE
ENCODING 95
SWIDTH 576 0
DWIDTH 6 0
BBX 7 1 -1 -1
BITMAP
FE
ENDCHAR
STARTCHAR GRAVE ACCENT
ENCODING 96
SWIDTH 576 0
DWIDTH 6 0
BBX 3 3 1 5
BITMAP
60
C0
C0
ENDCHAR
STARTCHAR LATIN SMALL LETTER A
ENCODING 97
SWIDTH 576 0
DWIDTH 6 0
BBX 5 6 0 0
BITMAP
70
D8
D8
D8
F8
78
ENDCHAR
STARTCHAR LATIN SMALL LETTER B
ENCODING 98
SWIDTH 576 0
DWIDTH 6 0
BBX 5 8 0 0
BITMAP
C0
C0
F0
D8
D8
D8
D8
F0
ENDCHAR
STARTCHAR LATIN SMALL LETTER C
ENCODING 99
SWIDTH 576 0
DWIDTH 6 0
BBX 5 6 0 0
BITMAP
70
D8
C0
C0
D8
70
ENDCHAR
STARTCHAR LATIN SMALL LETTER D
ENCODING 100
SWIDTH 576 0
DWIDTH 6 0
BBX 5 8 0 0
BITMAP
18
18
78
D8
D8
D8
F8
78
ENDCHAR
STARTCHAR LATIN SMALL LETTER E
ENCODING 101
SWIDTH 576 0
DWIDTH 6 0
BBX 5 6 0 0
BITMAP
70
D8
F8
C0
D8
70
ENDCHAR
STARTCHAR LATIN SMALL LETTER F
ENCODING 102
SWIDTH 576 0
DWIDTH 6 0
BBX 5 8 0 0
BITMAP
38
60
F8
60
60
60
60
60
ENDCHAR
STARTCHAR LATIN SMALL LETTER G
ENCODING 103
SWIDTH 576 0
DWIDTH 6 0
BBX 5 8 0 -2
BITMAP
78
D8
D8
D8
F8
78
18
70
ENDCHAR
STARTCHAR LATIN SMALL LETTER H
ENCODING 104
SWIDTH 576 0
DWIDTH 6 0
BBX 5 8 0 0
BITMAP
C0
C0
F0
F8
D8
D8
D8
D8
ENDCHAR
STARTCHAR LATIN SMALL LETTER I
ENCODING 105
SWIDTH 576 0
DWIDTH 6 0
BBX 4 8 1 0
BITMAP
60
00
E0
60
60
60
60
F0
ENDCHAR
STARTCHAR LATIN SMALL LETTER J
ENCODING 106
SWIDTH 576 0
DWIDTH 6 0
BBX 4 10 0 -2
BITMAP
30
00
30
30
30
30
30
30
30
E0
ENDCHAR
STARTCHAR LATIN SMALL LETTER K
ENCODING 107
SWIDTH 576 0
DWIDTH 6 0
BBX 5 8 0 0
BITMAP
C0
C0
D8
F0
E0
F0
D8
D8
ENDCHAR
STARTCHAR LATIN SMALL LETTER L
ENCODING 108
SWIDTH 576 0
DWIDTH 6 0
BBX 2 8 2 0
BITMAP
C0
C0
C0
C0
C0
C0
C0
C0
ENDCHAR
STARTCHAR LATIN SMALL LETTER M
ENCODING 109
SWIDTH 576 0
DWIDTH 6 0
BBX 5 6 0 0
BITMAP
D8
F8
F8
D8
D8
D8
ENDCHAR
STARTCHAR LATIN SMALL LETTER N
ENCODING 110
SWIDTH 576 0
DWIDTH 6 0
BBX 5 6 0 0
BITMAP
F0
F8
D8
D8
D8
D8
ENDCHAR
STARTCHAR LATIN SMALL LETTER O
ENCODING 111
SWIDTH 576 0
DWIDTH 6 0
BBX 5 6 0 0
BITMAP
70
D8
D8
D8
D8
70
ENDCHAR
STARTCHAR LATIN SMALL LETTER P
ENCODING 112
SWIDTH 576 0
DWIDTH 6 0
BBX 5 8 0 -2
BITMAP
F0
D8
D8
D8
D8
F0
C0
C0
ENDCHAR
STARTCHAR LATIN SMALL LETTER Q
ENCODING 113
SWIDTH 576 0
DWIDTH 6 0
BBX 5 8 0 -2
BITMAP
78
D8
D8
D8
F8
78
18
18
ENDCHAR
STARTCHAR LATIN SMALL LETTER R
ENCODING 114
SWIDTH 576 0
DWIDTH 6 0
BBX 5 6 0 0
BITMAP
F0
F8
C0
C0
C0
C0
ENDCHAR
STARTCHAR LATIN SMALL LETTER S
ENCODING 115
SWIDTH 576 0
DWIDTH 6 0
BBX 5 6 0 0
BITMAP
70
D8
70
18
D8
70
ENDCHAR
STARTCHAR LATIN SMALL LETTER T
ENCODING 116
SWIDTH 576 0
DWIDTH 6 0
BBX 5 7 0 0
BITMAP
60
F8
60
60
60
60
30
ENDCHAR
STARTCHAR LATIN SMALL LETTER U
ENCODING 117
SWIDTH 576 0
DWIDTH 6 0
BBX 5 6 0 0
BITMAP
D8
D8
D8
D8
F8
78
ENDCHAR
STARTCHAR LATIN SMALL LETTER V
ENCODING 118
SWIDTH 576 0
DWIDTH 6 0
BBX 5 6 0 0
BITMAP
D8
D8
D8
D8
70
70
ENDCHAR
STARTCHAR LATIN SMALL LETTER W
ENCODING 119
SWIDTH 576 0
DWIDTH 6 0
BBX 5 6 0 0
BITMAP
D8
D8
D8
F8
F8
D8
ENDCHAR
STARTCHAR LATIN SMALL LETTER X
ENCODING 120
SWIDTH 576 0
DWIDTH 6 0
BBX 5 6 0 0
BITMAP
D8
D8
70
D8
D8
D8
ENDCHAR
STARTCHAR LATIN SMALL LETTER Y
ENCODING 121
SWIDTH 576 0
DWIDTH 6 0
BBX 5 8 0 -2
BITMAP
D8
D8
D8
D8
D8
78
18
70
ENDCHAR
STARTCHAR LATIN SMALL LETTER Z
ENCODING 122
SWIDTH 576 0
DWIDTH 6 0
BBX 5 6 0 0
BITMAP
F8
18
30
60
C0
F8
ENDCHAR
STARTCHAR LEFT CURLY BRACKET
ENCODING 123
SWIDTH 576 0
DWIDTH 6 0
BBX 6 9 -1 -1
BITMAP
1C
30
30
30
E0
30
30
30
1C
ENDCHAR
STARTCHAR VERTICAL LINE
ENCODING 124
SWIDTH 576 0
DWIDTH 6 0
BBX 2 9 2 -1
BITMAP
C0
C0
C0
C0
C0
C0
C0
C0
C0
ENDCHAR
STARTCHAR RIGHT CURLY BRACKET
ENCODING 125
SWIDTH 576 0
DWIDTH 6 0
BBX 6 9 0 -1
BITMAP
E0
30
30
30
1C
30
30
30
E0
ENDCHAR
STARTCHAR TILDE
ENCODING 126
SWIDTH 576 0
DWIDTH 6 0
BBX 6 2 -1 3
BITMAP
6C
D8
ENDCHAR
STARTCHAR INVERTED EXCLAMATION MARK
ENCODING 161
SWIDTH 576 0
DWIDTH 6 0
BBX 2 7 1 0
BITMAP
C0
00
C0
C0
C0
C0
C0
ENDCHAR
STARTCHAR CENT SIGN
ENCODING 162
SWIDTH 576 0
DWIDTH 6 0
BBX 5 7 0 0
BITMAP
10
78
B0
B0
B0
F8
60
ENDCHAR
STARTCHAR POUND SIGN
ENCODING 163
SWIDTH 576 0
DWIDTH 6 0
BBX 6 6 -1 0
BITMAP
3C
60
60
F0
60
F8
ENDCHAR
STARTCHAR CURRENCY SIGN
ENCODING 164
SWIDTH 576 0
DWIDTH 6 0
BBX 6 6 -1 1
BITMAP
CC
78
78
78
78
CC
ENDCHAR
STARTCHAR YEN SIGN
ENCODING 165
SWIDTH 576 0
DWIDTH 6 0
BBX 4 7 0 0
BITMAP
90
F0
60
F0
60
F0
60
ENDCHAR
STARTCHAR BROKEN BAR
ENCODING 166
SWIDTH 576 0
DWIDTH 6 0
BBX 2 7 1 1
BITMAP
C0
C0
C0
00
C0
C0
C0
ENDCHAR
STARTCHAR SECTION SIGN
ENCODING 167
SWIDTH 576 0
DWIDTH 6 0
BBX 5 7 0 1
BITMAP
78
C0
70
D8
70
18
F0
ENDCHAR
STARTCHAR DIAERESIS
ENCODING 168
SWIDTH 576 0
DWIDTH 6 0
BBX 5 1 0 8
BITMAP
D8
ENDCHAR
STARTCHAR COPYRIGHT SIGN
ENCODING 169
SWIDTH 576 0
DWIDTH 6 0
BBX 7 8 -1 0
BITMAP
7C
C6
FE
F6
F6
FE
C6
7C
ENDCHAR
STARTCHAR FEMININE ORDINAL INDICATOR
ENCODING 170
SWIDTH 576 0
DWIDTH 6 0
BBX 5 7 0 2
BITMAP
70
D8
D8
F8
78
00
F8
ENDCHAR
STARTCHAR LEFT-POINTING DOUBLE ANGLE QUOTATION MARK
ENCODING 171
SWIDTH 576 0
DWIDTH 6 0
BBX 6 5 -1 2
BITMAP
3C
78
F0
78
3C
ENDCHAR
STARTCHAR NOT SIGN
ENCODING 172
SWIDTH 576 0
DWIDTH 6 0
BBX 6 3 -1 1
BITMAP
FC
0C
0C
ENDCHAR
STARTCHAR REGISTERED SIGN
ENCODING 174
SWIDTH 576 0
DWIDTH 6 0
BBX 7 8 -1 0
BITMAP
7C
C6
FE
EE
F6
EE
C6
7C
ENDCHAR
STARTCHAR MACRON
ENCODING 175
SWIDTH 576 0
DWIDTH 6 0
BBX 5 1 0 7
BITMAP
F8
ENDCHAR
STARTCHAR DEGREE SIGN
ENCODING 176
SWIDTH 576 0
DWIDTH 6 0
BBX 5 4 0 5
BITMAP
70
D8
D8
70
ENDCHAR
STARTCHAR PLUS-MINUS SIGN
ENCODING 177
SWIDTH 576 0
DWIDTH 6 0
BBX 4 5 1 1
BITMAP
60
F0
60
00
F0
ENDCHAR
STARTCHAR SUPERSCRIPT TWO
ENCODING 178
SWIDTH 576 0
DWIDTH 6 0
BBX 4 4 0 4
BITMAP
E0
30
60
F0
ENDCHAR
STARTCHAR SUPERSCRIPT THREE
ENCODING 179
SWIDTH 576 0
DWIDTH 6 0
BBX 4 5 0 3
BITMAP
E0
30
60
30
E0
ENDCHAR
STARTCHAR ACUTE ACCENT
ENCODING 180
SWIDTH 576 0
DWIDTH 6 0
BBX 3 2 1 7
BITMAP
60
C0
ENDCHAR
STARTCHAR MICRO SIGN
ENCODING 181
SWIDTH 576 0
DWIDTH 6 0
BBX 5 7 0 -1
BITMAP
D8
D8
D8
D8
F8
F8
C0
ENDCHAR
STARTCHAR PILCROW SIGN
ENCODING 182
SWIDTH 576 0
DWIDTH 6 0
BBX 5 6 0 2
BITMAP
F8
F8
E8
68
68
68
ENDCHAR
STARTCHAR MIDDLE DOT
ENCODING 183
SWIDTH 576 0
DWIDTH 6 0
BBX 3 3 1 2
BITMAP
E0
E0
E0
ENDCHAR
STARTCHAR CEDILLA
ENCODING 184
SWIDTH 576 0
DWIDTH 6 0
BBX 4 3 0 1
BITMAP
60
30
F0
ENDCHAR
STARTCHAR SUPERSCRIPT ONE
ENCODING 185
SWIDTH 576 0
DWIDTH 6 0
BBX 3 5 0 4
BITMAP
60
E0
60
60
60
ENDCHAR
STARTCHAR MASCULINE ORDINAL INDICATOR
ENCODING 186
SWIDTH 576 0
DWIDTH 6 0
BBX 5 6 0 2
BITMAP
70
D8
D8
70
00
F8
ENDCHAR
STARTCHAR RIGHT-POINTING DOUBLE ANGLE QUOTATION MARK
ENCODING 187
SWIDTH 576 0
DWIDTH 6 0
BBX 6 5 -1 2
BITMAP
F0
78
3C
78
F0
ENDCHAR
STARTCHAR VULGAR FRACTION ONE QUARTER
ENCODING 188
SWIDTH 576 0
DWIDTH 6 0
BBX 6 8 0 0
BITMAP
60
60
78
30
6C
FC
3C
0C
ENDCHAR
STARTCHAR VULGAR FRACTION ONE HALF
ENCODING 189
SWIDTH 576 0
DWIDTH 6 0
BBX 5 8 0 0
BITMAP
C0
D8
F0
60
F8
18
30
38
ENDCHAR
STARTCHAR VULGAR FRACTION THREE QUARTERS
ENCODING 190
SWIDTH 576 0
DWIDTH 6 0
BBX 6 9 0 0
BITMAP
E0
60
EC
78
F0
6C
FC
3C
0C
ENDCHAR
STARTCHAR INVERTED QUESTION MARK
ENCODING 191
SWIDTH 576 0
DWIDTH 6 0
BBX 5 7 0 0
BITMAP
30
00
30
60
C0
D8
70
ENDCHAR
STARTCHAR LATIN CAPITAL LETTER A WITH GRAVE
ENCODING 192
SWIDTH 576 0
DWIDTH 6 0
BBX 5 9 0 0
BITMAP
60
30
70
D8
D8
D8
F8
D8
D8
ENDCHAR
STARTCHAR LATIN CAPITAL LETTER A WITH ACUTE
ENCODING 193
SWIDTH 576 0
DWIDTH 6 0
BBX 5 9 0 0
BITMAP
30
60
70
D8
D8
D8
F8
D8
D8
ENDCHAR
STARTCHAR LATIN CAPITAL LETTER A WITH CIRCUMFLEX
ENCODING 194
SWIDTH 576 0
DWIDTH 6 0
BBX 5 9 0 0
BITMAP
70
D8
00
70
D8
D8
F8
D8
D8
ENDCHAR
STARTCHAR LATIN CAPITAL LETTER A WITH TILDE
ENCODING 195
SWIDTH 576 0
DWIDTH 6 0
BBX 6 9 0 0
BITMAP
6C
D8
00
70
D8
D8
F8
D8
D8
ENDCHAR
STARTCHAR LATIN CAPITAL LETTER A WITH DIAERESIS
ENCODING 196
SWIDTH 576 0
DWIDTH 6 0
BBX 5 9 0 0
BITMAP
D8
00
70
D8
D8
D8
F8
D8
D8
ENDCHAR
STARTCHAR LATIN CAPITAL LETTER A WITH RING ABOVE
ENCODING 197
SWIDTH 576 0
DWIDTH 6 0
BBX 5 9 0 0
BITMAP
20
00
70
D8
D8
D8
F8
D8
D8
ENDCHAR
STARTCHAR LATIN CAPITAL LETTER AE
ENCODING 198
SWIDTH 576 0
DWIDTH 6 0
BBX 6 7 0 0
BITMAP
7C
D8
D8
DC
F8
D8
DC
ENDCHAR
STARTCHAR LATIN CAPITAL LETTER C WITH CEDILLA
ENCODING 199
SWIDTH 576 0
DWIDTH 6 0
BBX 5 8 0 -1
BITMAP
70
D8
C0
C0
C0
D8
70
60
ENDCHAR
STARTCHAR LATIN CAPITAL LETTER E WITH GRAVE
ENCODING 200
SWIDTH 576 0
DWIDTH 6 0
BBX 5 9 0 0
BITMAP
60
30
F8
C0
C0
F0
C0
C0
F8
ENDCHAR
STARTCHAR LATIN CAPITAL LETTER E WITH ACUTE
ENCODING 201
SWIDTH 576 0
DWIDTH 6 0
BBX 5 9 0 0
BITMAP
30
60
F8
C0
C0
F0
C0
C0
F8
ENDCHAR
STARTCHAR LATIN CAPITAL LETTER E WITH CIRCUMFLEX
ENCODING 202
SWIDTH 576 0
DWIDTH 6 0
BBX 5 9 0 0
BITMAP
70
D8
00
F8
C0
F0
C0
C0
F8
ENDCHAR
STARTCHAR LATIN CAPITAL LETTER E WITH DIAERESIS
ENCODING 203
SWIDTH 576 0
DWIDTH 6 0
BBX 5 9 0 0
BITMAP
D8
00
F8
C0
C0
F0
C0
C0
F8
ENDCHAR
STARTCHAR LATIN CAPITAL LETTER I WITH GRAVE
ENCODING 204
SWIDTH 576 0
DWIDTH 6 0
BBX 4 9 1 0
BITMAP
C0
60
F0
60
60
60
60
60
F0
ENDCHAR
STARTCHAR LATIN CAPITAL LETTER I WITH ACUTE
ENCODING 205
SWIDTH 576 0
DWIDTH 6 0
BBX 4 9 1 0
BITMAP
30
60
F0
60
60
60
60
60
F0
ENDCHAR
STARTCHAR LATIN CAPITAL LETTER I WITH CIRCUMFLEX
ENCODING 206
SWIDTH 576 0
DWIDTH 6 0
BBX 4 9 1 0
BITMAP
60
F0
00
F0
60
60
60
60
F0
ENDCHAR
STARTCHAR LATIN CAPITAL LETTER I WITH DIAERESIS
ENCODING 207
SWIDTH 576 0
DWIDTH 6 0
BBX 6 9 0 0
BITMAP
CC
00
78
30
30
30
30
30
78
ENDCHAR
STARTCHAR LATIN CAPITAL LETTER ETH
ENCODING 208
SWIDTH 576 0
DWIDTH 6 0
BBX 6 7 -1 0
BITMAP
78
6C
6C
FC
6C
6C
78
ENDCHAR
STARTCHAR LATIN CAPITAL LETTER N WITH TILDE
ENCODING 209
SWIDTH 576 0
DWIDTH 6 0
BBX 6 9 0 0
BITMAP
6C
D8
00
D8
F8
F8
F8
F8
D8
ENDCHAR
STARTCHAR LATIN CAPITAL LETTER O WITH GRAVE
ENCODING 210
SWIDTH 576 0
DWIDTH 6 0
BBX 5 9 0 0
BITMAP
60
30
70
D8
D8
D8
D8
D8
70
ENDCHAR
STARTCHAR LATIN CAPITAL LETTER O WITH ACUTE
ENCODING 211
SWIDTH 576 0
DWIDTH 6 0
BBX 5 9 0 0
BITMAP
30
60
70
D8
D8
D8
D8
D8
70
ENDCHAR
STARTCHAR LATIN CAPITAL LETTER O WITH CIRCUMFLEX
ENCODING 212
SWIDTH 576 0
DWIDTH 6 0
BBX 5 9 0 0
BITMAP
70
D8
00
70
D8
D8
D8
D8
70
ENDCHAR
STARTCHAR LATIN CAPITAL LETTER O WITH TILDE
ENCODING 213
SWIDTH 576 0
DWIDTH 6 0
BBX 6 9 0 0
BITMAP
6C
D8
00
70
D8
D8
D8
D8
70
ENDCHAR
STARTCHAR LATIN CAPITAL LETTER O WITH DIAERESIS
ENCODING 214
SWIDTH 576 0
DWIDTH 6 0
BBX 5 9 0 0
BITMAP
D8
00
70
D8
D8
D8
D8
D8
70
ENDCHAR
STARTCHAR MULTIPLICATION SIGN
ENCODING 215
SWIDTH 576 0
DWIDTH 6 0
BBX 4 3 0 3
BITMAP
F0
60
F0
ENDCHAR
STARTCHAR LATIN CAPITAL LETTER O WITH STROKE
ENCODING 216
SWIDTH 576 0
DWIDTH 6 0
BBX 6 10 0 -1
BITMAP
0C
0C
78
DC
FC
FC
EC
78
C0
C0
ENDCHAR
STARTCHAR LATIN CAPITAL LETTER U WITH GRAVE
ENCODING 217
SWIDTH 576 0
DWIDTH 6 0
BBX 5 9 0 0
BITMAP
60
30
D8
D8
D8
D8
D8
D8
70
ENDCHAR
STARTCHAR LATIN CAPITAL LETTER U WITH ACUTE
ENCODING 218
SWIDTH 576 0
DWIDTH 6 0
BBX 5 9 0 0
BITMAP
30
60
D8
D8
D8
D8
D8
D8
70
ENDCHAR
STARTCHAR LATIN CAPITAL LETTER U WITH CIRCUMFLEX
ENCODING 219
SWIDTH 576 0
DWIDTH 6 0
BBX 5 9 0 0
BITMAP
70
D8
00
D8
D8
D8
D8
D8
70
ENDCHAR
STARTCHAR LATIN CAPITAL LETTER U WITH DIAERESIS
ENCODING 220
SWIDTH 576 0
DWIDTH 6 0
BBX 5 9 0 0
BITMAP
D8
00
D8
D8
D8
D8
D8
D8
70
ENDCHAR
STARTCHAR LATIN CAPITAL LETTER Y WITH ACUTE
ENCODING 221
SWIDTH 576 0
DWIDTH 6 0
BBX 6 9 0 0
BITMAP
18
30
CC
CC
78
30
30
30
30
ENDCHAR
STARTCHAR LATIN CAPITAL LETTER THORN
ENCODING 222
SWIDTH 576 0
DWIDTH 6 0
BBX 5 10 0 -2
BITMAP
C0
C0
C0
F0
D8
D8
D8
F0
C0
C0
ENDCHAR
STARTCHAR LATIN SMALL LETTER SHARP S
ENCODING 223
SWIDTH 576 0
DWIDTH 6 0
BBX 5 8 0 0
BITMAP
70
D8
F0
D8
D8
F0
C0
C0
ENDCHAR
STARTCHAR LATIN SMALL LETTER A WITH GRAVE
ENCODING 224
SWIDTH 576 0
DWIDTH 6 0
BBX 5 9 0 0
BITMAP
60
30
00
70
D8
D8
D8
F8
78
ENDCHAR
STARTCHAR LATIN SMALL LETTER A WITH ACUTE
ENCODING 225
SWIDTH 576 0
DWIDTH 6 0
BBX 5 9 0 0
BITMAP
30
60
00
70
D8
D8
D8
F8
78
ENDCHAR
STARTCHAR LATIN SMALL LETTER A WITH CIRCUMFLEX
ENCODING 226
SWIDTH 576 0
DWIDTH 6 0
BBX 5 9 0 0
BITMAP
70
D8
00
70
D8
D8
D8
F8
78
ENDCHAR
STARTCHAR LATIN SMALL LETTER A WITH TILDE
ENCODING 227
SWIDTH 576 0
DWIDTH 6 0
BBX 5 9 0 0
BITMAP
78
F0
00
70
D8
D8
D8
F8
78
ENDCHAR
STARTCHAR LATIN SMALL LETTER A WITH DIAERESIS
ENCODING 228
SWIDTH 576 0
DWIDTH 6 0
BBX 5 8 0 0
BITMAP
D8
00
70
D8
D8
D8
F8
78
ENDCHAR
STARTCHAR LATIN SMALL LETTER A WITH RING ABOVE
ENCODING 229
SWIDTH 576 0
DWIDTH 6 0
BBX 5 8 0 0
BITMAP
20
00
70
D8
D8
D8
F8
78
ENDCHAR
STARTCHAR LATIN SMALL LETTER AE
ENCODING 230
SWIDTH 576 0
DWIDTH 6 0
BBX 6 5 0 0
BITMAP
7C
F4
BC
F0
BC
ENDCHAR
STARTCHAR LATIN SMALL LETTER C WITH CEDILLA
ENCODING 231
SWIDTH 576 0
DWIDTH 6 0
BBX 5 7 0 -1
BITMAP
70
D8
C0
C0
D8
70
60
ENDCHAR
STARTCHAR LATIN SMALL LETTER E WITH GRAVE
ENCODING 232
SWIDTH 576 0
DWIDTH 6 0
BBX 5 9 0 0
BITMAP
60
30
00
70
D8
F8
C0
D8
70
ENDCHAR
STARTCHAR LATIN SMALL LETTER E WITH ACUTE
ENCODING 233
SWIDTH 576 0
DWIDTH 6 0
BBX 5 9 0 0
BITMAP
30
60
00
70
D8
F8
C0
D8
70
ENDCHAR
STARTCHAR LATIN SMALL LETTER E WITH CIRCUMFLEX
ENCODING 234
SWIDTH 576 0
DWIDTH 6 0
BBX 5 9 0 0
BITMAP
70
D8
00
70
D8
F8
C0
D8
70
ENDCHAR
STARTCHAR LATIN SMALL LETTER E WITH DIAERESIS
ENCODING 235
SWIDTH 576 0
DWIDTH 6 0
BBX 5 8 0 0
BITMAP
D8
00
70
D8
F8
C0
D8
70
ENDCHAR
STARTCHAR LATIN SMALL LETTER I WITH GRAVE
ENCODING 236
SWIDTH 576 0
DWIDTH 6 0
BBX 4 9 1 0
BITMAP
C0
60
00
E0
60
60
60
60
F0
ENDCHAR
STARTCHAR LATIN SMALL LETTER I WITH ACUTE
ENCODING 237
SWIDTH 576 0
DWIDTH 6 0
BBX 4 9 1 0
BITMAP
30
60
00
E0
60
60
60
60
F0
ENDCHAR
STARTCHAR LATIN SMALL LETTER I WITH CIRCUMFLEX
ENCODING 238
SWIDTH 576 0
DWIDTH 6 0
BBX 4 9 1 0
BITMAP
60
F0
00
E0
60
60
60
60
F0
ENDCHAR
STARTCHAR LATIN SMALL LETTER I WITH DIAERESIS
ENCODING 239
SWIDTH 576 0
DWIDTH 6 0
BBX 5 8 0 0
BITMAP
D8
00
70
30
30
30
30
78
ENDCHAR
STARTCHAR LATIN SMALL LETTER ETH
ENCODING 240
SWIDTH 576 0
DWIDTH 6 0
BBX 6 8 -1 0
BITMAP
7C
38
6C
78
CC
CC
CC
78
ENDCHAR
STARTCHAR LATIN SMALL LETTER N WITH TILDE
ENCODING 241
SWIDTH 576 0
DWIDTH 6 0
BBX 5 9 0 0
BITMAP
78
F0
00
F0
F8
D8
D8
D8
D8
ENDCHAR
STARTCHAR LATIN SMALL LETTER O WITH GRAVE
ENCODING 242
SWIDTH 576 0
DWIDTH 6 0
BBX 5 9 0 0
BITMAP
60
30
00
70
D8
D8
D8
D8
70
ENDCHAR
STARTCHAR LATIN SMALL LETTER O WITH ACUTE
ENCODING 243
SWIDTH 576 0
DWIDTH 6 0
BBX 5 9 0 0
BITMAP
30
60
00
70
D8
D8
D8
D8
70
ENDCHAR
STARTCHAR LATIN SMALL LETTER O WITH CIRCUMFLEX
ENCODING 244
SWIDTH 576 0
DWIDTH 6 0
BBX 5 9 0 0
BITMAP
70
D8
00
70
D8
D8
D8
D8
70
ENDCHAR
STARTCHAR LATIN SMALL LETTER O WITH TILDE
ENCODING 245
SWIDTH 576 0
DWIDTH 6 0
BBX 5 9 0 0
BITMAP
78
F0
00
70
D8
D8
D8
D8
70
ENDCHAR
STARTCHAR LATIN SMALL LETTER O WITH DIAERESIS
ENCODING 246
SWIDTH 576 0
DWIDTH 6 0
BBX 5 8 0 0
BITMAP
D8
00
70
D8
D8
D8
D8
70
ENDCHAR
STARTCHAR DIVISION SIGN
ENCODING 247
SWIDTH 576 0
DWIDTH 6 0
BBX 6 5 0 2
BITMAP
30
00
FC
00
30
ENDCHAR
STARTCHAR LATIN SMALL LETTER O WITH STROKE
ENCODING 248
SWIDTH 576 0
DWIDTH 6 0
BBX 6 9 0 -1
BITMAP
0C
0C
78
DC
B4
EC
78
C0
C0
ENDCHAR
STARTCHAR LATIN SMALL LETTER U WITH GRAVE
ENCODING 249
SWIDTH 576 0
DWIDTH 6 0
BBX 5 9 0 0
BITMAP
60
30
00
D8
D8
D8
D8
F8
78
ENDCHAR
STARTCHAR LATIN SMALL LETTER U WITH ACUTE
ENCODING 250
SWIDTH 576 0
DWIDTH 6 0
BBX 5 9 0 0
BITMAP
30
60
00
D8
D8
D8
D8
F8
78
ENDCHAR
STARTCHAR LATIN SMALL LETTER U WITH CIRCUMFLEX
ENCODING 251
SWIDTH 576 0
DWIDTH 6 0
BBX 5 9 0 0
BITMAP
70
D8
00
D8
D8
D8
D8
F8
78
ENDCHAR
STARTCHAR LATIN SMALL LETTER U WITH DIAERESIS
ENCODING 252
SWIDTH 576 0
DWIDTH 6 0
BBX 5 8 0 0
BITMAP
D8
00
D8
D8
D8
D8
F8
78
ENDCHAR
STARTCHAR LATIN SMALL LETTER Y WITH ACUTE
ENCODING 253
SWIDTH 576 0
DWIDTH 6 0
BBX 5 11 0 -2
BITMAP
18
30
00
D8
D8
D8
D8
D8
78
18
70
ENDCHAR
STARTCHAR LATIN SMALL LETTER THORN
ENCODING 254
SWIDTH 576 0
DWIDTH 6 0
BBX 5 10 0 -2
BITMAP
C0
C0
F0
D8
D8
D8
D8
F0
C0
C0
ENDCHAR
STARTCHAR LATIN SMALL LETTER Y WITH DIAERESIS
ENCODING 255
SWIDTH 576 0
DWIDTH 6 0
BBX 5 10 0 -2
BITMAP
D8
00
D8
D8
D8
D8
D8
78
18
70
ENDCHAR
ENDFONT
